<svg xmlns="http://www.w3.org/2000/svg" viewBox="0 0 246.38 276.33"><defs><style>.cls-1{fill:#1d1d1b;}.cls-2{fill:#74caec;}.cls-3{fill:#4eb8a0;}</style></defs><g id="Layer_2" data-name="Layer 2"><g id="Layer_1-2" data-name="Layer 1"><path class="cls-1" d="M99.83,272.8a48.67,48.67,0,0,0-3.94,3.53A141.11,141.11,0,0,1,0,205.51a50.51,50.51,0,0,0,4.36-6.84A52.52,52.52,0,0,0,18,206v0A141.21,141.21,0,0,0,99.83,272.8Z"/><path class="cls-2" d="M99.83,272.8a48.67,48.67,0,0,0-3.94,3.53A141.11,141.11,0,0,1,0,205.51a50.51,50.51,0,0,0,4.36-6.84A52.52,52.52,0,0,0,18,206v0A141.21,141.21,0,0,0,99.83,272.8Z"/><path class="cls-3" d="M105.65,129.23A53.21,53.21,0,0,0,1.08,127.48c-.13.62-.25,1.22-.33,1.85A51.59,51.59,0,0,0,0,138.16a52.15,52.15,0,0,0,.75,8.9v0a53.25,53.25,0,0,0,24.38,36.26c.5.32,1,.65,1.55.92a53.17,53.17,0,0,0,79-37.18v0a52.15,52.15,0,0,0,.75-8.9A52.67,52.67,0,0,0,105.65,129.23ZM53.19,173.64A35.45,35.45,0,0,1,18.06,143a33.31,33.31,0,0,1-.33-4.81A35.46,35.46,0,0,1,48.93,103l.3,0c.4-.05.82-.08,1.22-.11a24.9,24.9,0,0,1,2.74-.12,24.61,24.61,0,0,1,2.73.12c.43,0,.83.06,1.23.11l.33,0a35.47,35.47,0,0,1-4.29,70.69Z"/><path class="cls-2" d="M146.54,3.54A49,49,0,0,0,150.48,0a141.12,141.12,0,0,1,95.89,70.82A51.14,51.14,0,0,0,242,77.66a52,52,0,0,0-13.62-7.29v0A141.16,141.16,0,0,0,146.54,3.54Z"/><path class="cls-3" d="M245.63,129.28v0A53.22,53.22,0,0,0,221.25,93c-.5-.32-1-.65-1.55-.92a53.17,53.17,0,0,0-79,37.19v0a52.15,52.15,0,0,0-.75,8.9,53.21,53.21,0,0,0,81.27,45.19,53.3,53.3,0,0,0,24.05-34.5c.13-.63.25-1.23.33-1.86a51.5,51.5,0,0,0,.75-8.83A52.15,52.15,0,0,0,245.63,129.28Zm-48.17,44.11c-.1,0-.2,0-.31,0-.4.05-.82.07-1.22.1a24.9,24.9,0,0,1-2.74.12,24.61,24.61,0,0,1-2.73-.12c-.43,0-.83-.05-1.23-.1-.1,0-.2,0-.33,0A35.47,35.47,0,1,1,220.05,115a35.34,35.34,0,0,1,8.6,23.17A35.46,35.46,0,0,1,197.46,173.39Z"/></g></g></svg>